<svg width="22" height="20" viewBox="0 0 22 20" fill="none" xmlns="http://www.w3.org/2000/svg">
<mask id="path-1-outside-1_4_39" maskUnits="userSpaceOnUse" x="-0.157013" y="0.0431976" width="22" height="20" fill="black">
<rect fill="white" x="-0.157013" y="0.0431976" width="22" height="20"/>
<path fill-rule="evenodd" clip-rule="evenodd" d="M19.1857 9.18572C20.4126 7.41748 20.2531 4.94232 18.7071 3.35794C16.9966 1.60495 14.2336 1.60495 12.5231 3.35794L11.6649 4.23747L10.9491 4.97096L10.2334 4.23747L9.41427 3.39798C7.68215 1.62287 4.88423 1.62287 3.15211 3.39798C1.38096 5.2131 1.41114 8.17474 3.21741 9.95134L11.2273 17.8296L12.5687 16.5687L13.2762 17.2762L11.2116 19.2168L2.51619 10.6643C0.316936 8.50115 0.280942 4.90854 2.43639 2.6996C4.56092 0.522335 8.00546 0.522336 10.13 2.6996L10.2506 2.82315L10.9491 3.53909L11.6477 2.82315L11.8074 2.65955C13.9103 0.504412 17.3199 0.504413 19.4228 2.65955C21.3515 4.63612 21.5113 7.73901 19.9022 9.90224L19.1857 9.18572Z"/>
</mask>
<path fill-rule="evenodd" clip-rule="evenodd" d="M19.1857 9.18572C20.4126 7.41748 20.2531 4.94232 18.7071 3.35794C16.9966 1.60495 14.2336 1.60495 12.5231 3.35794L11.6649 4.23747L10.9491 4.97096L10.2334 4.23747L9.41427 3.39798C7.68215 1.62287 4.88423 1.62287 3.15211 3.39798C1.38096 5.2131 1.41114 8.17474 3.21741 9.95134L11.2273 17.8296L12.5687 16.5687L13.2762 17.2762L11.2116 19.2168L2.51619 10.6643C0.316936 8.50115 0.280942 4.90854 2.43639 2.6996C4.56092 0.522335 8.00546 0.522336 10.13 2.6996L10.2506 2.82315L10.9491 3.53909L11.6477 2.82315L11.8074 2.65955C13.9103 0.504412 17.3199 0.504413 19.4228 2.65955C21.3515 4.63612 21.5113 7.73901 19.9022 9.90224L19.1857 9.18572Z" fill="white"/>
<path d="M19.1857 9.18572L19.0214 9.0717L18.9262 9.20898L19.0443 9.32714L19.1857 9.18572ZM18.7071 3.35794L18.564 3.49762L18.564 3.49762L18.7071 3.35794ZM12.5231 3.35794L12.6662 3.49762L12.6662 3.49762L12.5231 3.35794ZM11.6649 4.23747L11.5217 4.0978L11.5217 4.0978L11.6649 4.23747ZM10.9491 4.97096L10.806 5.11064L10.9491 5.25733L11.0923 5.11064L10.9491 4.97096ZM10.2334 4.23747L10.0903 4.37715L10.0903 4.37715L10.2334 4.23747ZM9.41427 3.39798L9.55741 3.25831L9.55741 3.25831L9.41427 3.39798ZM3.15211 3.39798L3.00896 3.25831L3.00896 3.25831L3.15211 3.39798ZM3.21741 9.95134L3.35766 9.80875L3.35766 9.80875L3.21741 9.95134ZM11.2273 17.8296L11.087 17.9722L11.2241 18.1071L11.3643 17.9754L11.2273 17.8296ZM12.5687 16.5687L12.7102 16.4273L12.573 16.2902L12.4318 16.423L12.5687 16.5687ZM13.2762 17.2762L13.4132 17.4219L13.5635 17.2806L13.4176 17.1348L13.2762 17.2762ZM11.2116 19.2168L11.0713 19.3594L11.2084 19.4943L11.3485 19.3625L11.2116 19.2168ZM2.51619 10.6643L2.65643 10.5217L2.65643 10.5217L2.51619 10.6643ZM2.43639 2.6996L2.29324 2.55992L2.29324 2.55992L2.43639 2.6996ZM10.13 2.6996L10.2731 2.55992L10.2731 2.55992L10.13 2.6996ZM10.2506 2.82315L10.1074 2.96283L10.1074 2.96283L10.2506 2.82315ZM10.9491 3.53909L10.806 3.67877L10.9491 3.82546L11.0923 3.67877L10.9491 3.53909ZM11.6477 2.82315L11.7909 2.96283L11.7909 2.96283L11.6477 2.82315ZM11.8074 2.65955L11.6642 2.51988L11.6642 2.51988L11.8074 2.65955ZM19.4228 2.65955L19.566 2.51988L19.566 2.51988L19.4228 2.65955ZM19.9022 9.90224L19.7608 10.0437L19.9245 10.2074L20.0627 10.0216L19.9022 9.90224ZM19.35 9.29973C20.6303 7.45465 20.4647 4.87283 18.8502 3.21826L18.564 3.49762C20.0415 5.0118 20.195 7.38032 19.0214 9.0717L19.35 9.29973ZM18.8502 3.21826C17.0612 1.38484 14.169 1.38484 12.38 3.21826L12.6662 3.49762C14.2983 1.82506 16.9319 1.82506 18.564 3.49762L18.8502 3.21826ZM12.38 3.21826L11.5217 4.0978L11.808 4.37715L12.6662 3.49762L12.38 3.21826ZM11.5217 4.0978L10.806 4.83128L11.0923 5.11064L11.808 4.37715L11.5217 4.0978ZM11.0923 4.83128L10.3766 4.0978L10.0903 4.37715L10.806 5.11064L11.0923 4.83128ZM10.3766 4.0978L9.55741 3.25831L9.27112 3.53766L10.0903 4.37715L10.3766 4.0978ZM9.55741 3.25831C7.74681 1.40277 4.81956 1.40277 3.00896 3.25831L3.29525 3.53766C4.94889 1.84298 7.61749 1.84298 9.27112 3.53766L9.55741 3.25831ZM3.00896 3.25831C1.16095 5.15219 1.1923 8.24002 3.07717 10.0939L3.35766 9.80875C1.62997 8.10945 1.60096 5.274 3.29525 3.53766L3.00896 3.25831ZM3.07717 10.0939L11.087 17.9722L11.3675 17.687L3.35766 9.80875L3.07717 10.0939ZM11.3643 17.9754L12.7057 16.7145L12.4318 16.423L11.0903 17.6839L11.3643 17.9754ZM13.4176 17.1348L12.7102 16.4273L12.4273 16.7102L13.1348 17.4176L13.4176 17.1348ZM13.1392 17.1305L11.0746 19.0711L11.3485 19.3625L13.4132 17.4219L13.1392 17.1305ZM11.3518 19.0742L2.65643 10.5217L2.37594 10.8069L11.0713 19.3594L11.3518 19.0742ZM2.65643 10.5217C0.535777 8.43587 0.500945 4.96945 2.57953 2.83927L2.29324 2.55992C0.0609386 4.84763 0.098096 8.56644 2.37594 10.8069L2.65643 10.5217ZM2.57953 2.83927C4.62558 0.742442 7.9408 0.742443 9.98685 2.83928L10.2731 2.55992C8.07012 0.302228 4.49626 0.302227 2.29324 2.55992L2.57953 2.83927ZM9.98685 2.83928L10.1074 2.96283L10.3937 2.68348L10.2731 2.55992L9.98685 2.83928ZM10.1074 2.96283L10.806 3.67877L11.0923 3.39941L10.3937 2.68348L10.1074 2.96283ZM11.0923 3.67877L11.7909 2.96283L11.5046 2.68348L10.806 3.39941L11.0923 3.67877ZM11.7909 2.96283L11.9505 2.79923L11.6642 2.51988L11.5046 2.68348L11.7909 2.96283ZM11.9505 2.79923C13.975 0.72452 17.2552 0.72452 19.2797 2.79923L19.566 2.51988C17.3845 0.284305 13.8457 0.284304 11.6642 2.51988L11.9505 2.79923ZM19.2797 2.79923C21.1385 4.70417 21.2932 7.69709 19.7418 9.78287L20.0627 10.0216C21.7294 7.78094 21.5646 4.56807 19.566 2.51988L19.2797 2.79923ZM19.0443 9.32714L19.7608 10.0437L20.0437 9.76081L19.3271 9.04429L19.0443 9.32714Z" fill="white" mask="url(#path-1-outside-1_4_39)"/>
<circle cx="16.75" cy="13.75" r="0.9" fill="#CC61C8" stroke="#CC61C8" stroke-width="0.3"/>
<circle cx="14.75" cy="15.75" r="0.9" fill="#C45FC0" stroke="#CC61C8" stroke-width="0.3"/>
</svg>
